<?xml version="1.0" standalone="no"?>
<!DOCTYPE svg PUBLIC "-//W3C//DTD SVG 20010904//EN"
 "http://www.w3.org/TR/2001/REC-SVG-20010904/DTD/svg10.dtd">
<svg version="1.0" xmlns="http://www.w3.org/2000/svg"
 width="2000.000000pt" height="2000.000000pt" viewBox="0 0 2000.000000 2000.000000"
 preserveAspectRatio="xMidYMid meet">
<metadata>
Created by potrace 1.11, written by Peter Selinger 2001-2013
</metadata>
<g transform="translate(0.000000,2000.000000) scale(0.100000,-0.100000)"
fill="#000000" stroke="none">
<path d="M6318 19812 c-23 -13 -86 -46 -138 -74 -52 -28 -99 -54 -105 -58 -5
-4 -59 -33 -120 -65 -60 -32 -114 -61 -120 -65 -5 -4 -46 -26 -90 -50 -93 -50
-158 -85 -235 -127 -30 -17 -86 -48 -125 -68 -38 -21 -119 -65 -180 -98 -144
-78 -239 -130 -355 -192 l-95 -51 -2 -1390 c-1 -764 -4 -4114 -5 -7445 l-4
-6056 158 -99 c87 -54 177 -111 201 -126 23 -15 53 -33 67 -41 14 -8 292 -181
619 -385 326 -205 595 -372 596 -372 2 0 4 273 5 608 1 334 3 1278 6 2097 2
820 6 2007 8 2638 2 631 5 1149 7 1151 5 3 193 107 294 161 39 21 91 49 116
63 l46 25 169 -93 c93 -51 194 -107 224 -123 30 -16 69 -38 85 -47 17 -10 59
-33 95 -52 36 -20 133 -72 215 -118 83 -46 173 -95 200 -110 28 -15 111 -61
185 -102 74 -41 164 -91 200 -110 36 -20 198 -109 360 -198 319 -176 376 -207
460 -252 30 -17 58 -33 63 -37 4 -4 8 -1562 9 -3462 1 -1900 3 -3459 5 -3466
4 -11 53 -44 213 -143 47 -29 108 -67 135 -85 50 -32 246 -154 450 -280 61
-37 133 -82 160 -100 28 -18 172 -108 320 -200 149 -92 293 -182 320 -200 52
-34 310 -195 368 -230 18 -11 52 -31 74 -45 23 -14 44 -32 46 -41 4 -14 187
-129 207 -129 8 0 166 88 415 230 61 34 130 74 155 88 25 14 128 72 229 130
101 57 200 113 220 124 20 10 52 29 71 40 19 11 58 33 85 48 165 92 292 165
307 178 10 8 31 38 47 67 l30 53 6 1533 c3 844 8 1991 10 2549 7 1748 16 3993
20 5080 2 575 7 1745 11 2600 5 1459 8 2803 4 2968 l-1 72 -347 208 c-191 113
-356 212 -367 218 -17 9 -629 374 -725 432 -109 65 -165 99 -189 112 -39 22
-672 400 -701 419 -14 8 -34 21 -45 27 -11 6 -34 19 -52 30 -18 10 -69 41
-115 68 -46 27 -111 66 -146 88 -34 21 -77 47 -95 57 -17 10 -111 65 -207 123
-96 58 -377 226 -625 373 -247 147 -544 325 -660 394 -115 69 -221 132 -235
138 -14 7 -56 32 -95 56 -76 47 -588 353 -620 371 -27 15 -341 203 -385 231
-19 12 -62 37 -95 57 -234 138 -767 455 -797 474 -54 35 -160 37 -220 6z m402
-441 c140 -83 262 -156 270 -161 18 -11 167 -100 192 -115 9 -5 43 -26 75 -45
32 -19 67 -39 78 -46 11 -6 141 -84 289 -173 148 -88 271 -161 272 -161 2 0
35 -20 74 -45 39 -25 72 -45 74 -45 1 0 43 -25 92 -55 49 -30 99 -59 112 -65
12 -5 35 -18 50 -29 15 -10 241 -146 502 -302 683 -405 833 -495 943 -561 53
-32 110 -66 127 -76 16 -9 134 -80 262 -156 128 -77 339 -202 468 -279 129
-77 337 -202 462 -276 125 -75 236 -141 245 -146 10 -6 74 -44 143 -85 69 -41
130 -77 135 -80 19 -9 560 -332 600 -358 22 -14 49 -31 60 -36 40 -22 420
-249 428 -256 8 -7 -113 -79 -313 -187 -48 -26 -354 -196 -450 -250 -84 -47
-138 -77 -185 -103 -190 -104 -232 -128 -250 -139 -18 -11 -72 18 -520 280
-275 160 -513 300 -530 309 -16 9 -146 85 -289 169 -142 83 -261 151 -264 151
-3 0 -20 11 -37 25 -18 13 -35 21 -39 18 -3 -4 -6 -1 -6 5 0 7 -4 12 -9 12 -5
0 -67 34 -137 76 -71 42 -185 109 -254 149 -69 40 -273 159 -455 265 -181 106
-350 204 -375 218 -24 14 -84 49 -133 79 -48 29 -92 53 -97 53 -6 0 -10 5 -10
10 0 6 -4 10 -10 10 -5 0 -195 108 -421 241 -227 133 -427 249 -445 260 -29
16 -63 36 -129 76 -29 17 -401 233 -454 264 -26 14 -88 51 -140 83 -51 31 -95
56 -97 56 -3 0 -72 40 -154 90 -8 5 -82 48 -165 96 -82 48 -170 99 -195 114
-59 35 -226 133 -270 158 -38 21 -426 247 -450 262 -8 5 -55 33 -105 62 -49
29 -99 58 -110 65 -11 7 -31 17 -44 23 l-25 11 30 18 c16 9 65 37 109 60 142
77 208 113 315 171 155 85 240 131 290 157 25 13 68 37 95 52 28 16 147 80
265 144 193 105 216 115 235 103 11 -7 135 -81 275 -165z m6044 -4388 c-1
-296 -5 -1208 -8 -2028 -4 -819 -9 -2028 -11 -2685 -8 -2089 -24 -6007 -30
-7475 -2 -506 -4 -1069 -5 -1252 l0 -331 -67 -38 c-38 -21 -81 -45 -98 -54
-16 -10 -111 -64 -210 -120 -99 -56 -204 -115 -233 -131 -28 -16 -132 -75
-230 -131 -182 -104 -191 -109 -303 -171 l-66 -37 0 7145 0 7144 96 55 c53 29
114 64 136 76 22 13 90 51 150 85 61 34 162 91 225 127 63 36 131 74 150 85
71 40 126 71 165 93 22 12 78 44 125 70 47 26 112 63 145 82 33 19 62 34 65
32 3 -1 5 -245 4 -541z m-5519 -151 c110 -68 216 -134 235 -147 19 -13 265
-166 545 -340 893 -556 960 -598 973 -609 10 -10 12 -301 14 -1409 1 -768 -1
-1399 -3 -1401 -2 -2 -81 -42 -176 -90 l-172 -86 -268 161 c-147 89 -281 169
-298 179 -16 10 -196 118 -400 240 -203 122 -383 230 -400 240 -16 9 -129 77
-250 150 -121 73 -236 142 -255 153 -19 10 -46 27 -60 37 -14 9 -30 19 -36 21
-43 16 -254 155 -255 168 -5 96 0 2673 5 2678 4 4 105 68 224 143 l217 136 80
-50 c44 -27 170 -105 280 -174z"/>
<path d="M6860 13352 l0 -1009 23 -11 c25 -13 70 -40 107 -63 20 -13 338 -201
467 -275 18 -11 85 -50 150 -89 65 -38 127 -75 138 -81 11 -6 81 -47 155 -91
123 -73 525 -310 543 -320 4 -2 7 443 7 990 l0 994 -97 59 c-54 32 -169 103
-257 156 -87 54 -161 98 -163 98 -3 0 -17 8 -31 19 -25 17 -816 500 -887 541
-16 9 -56 33 -87 53 -31 21 -60 37 -63 37 -3 0 -5 -454 -5 -1008z"/>
<path d="M6860 5646 l0 -3434 80 -49 c44 -26 88 -52 98 -58 10 -5 65 -39 122
-74 124 -76 409 -249 430 -261 8 -5 213 -129 454 -277 242 -147 443 -270 448
-271 4 -2 8 1574 8 3502 l0 3505 -58 29 c-98 50 -334 172 -407 212 -38 20
-142 75 -230 120 -88 45 -164 86 -170 90 -5 4 -95 51 -200 105 -104 54 -217
112 -250 130 -144 77 -314 165 -319 165 -3 0 -6 -1545 -6 -3434z"/>
</g>
</svg>
