<?xml version="1.0" standalone="no"?>
<!DOCTYPE svg PUBLIC "-//W3C//DTD SVG 20010904//EN"
 "http://www.w3.org/TR/2001/REC-SVG-20010904/DTD/svg10.dtd">
<svg version="1.0" xmlns="http://www.w3.org/2000/svg"
 width="324.000000pt" height="324.000000pt" viewBox="0 0 324.000000 324.000000"
 preserveAspectRatio="xMidYMid meet">
<metadata>
Created by potrace 1.11, written by Peter Selinger 2001-2013
</metadata>
<g transform="translate(0.000000,324.000000) scale(0.100000,-0.100000)"
fill="#000000" stroke="none">
<path d="M2030 1700 l0 -320 65 0 65 0 -1 90 c-1 91 -1 91 32 120 l33 29 62
-107 c35 -59 66 -113 71 -120 8 -13 128 -20 140 -8 3 3 -36 73 -87 157 l-92
151 88 83 88 83 -49 4 c-75 6 -110 -5 -162 -55 -101 -95 -123 -111 -124 -91 0
11 0 83 0 162 l1 142 -65 0 -65 0 0 -320z"/>
<path d="M384 1866 c-81 -25 -124 -74 -124 -141 0 -80 52 -125 168 -147 99
-18 127 -31 130 -59 4 -36 -21 -53 -76 -52 -56 0 -90 16 -101 46 -8 20 -16 22
-65 21 -31 -1 -59 -4 -62 -7 -3 -3 0 -24 7 -47 23 -77 111 -120 235 -115 81 4
124 19 159 55 25 26 30 41 33 95 4 63 3 66 -30 99 -31 31 -68 47 -138 60 -123
21 -130 25 -130 62 0 48 113 62 155 19 14 -13 25 -29 25 -34 0 -6 6 -9 13 -6
6 2 32 6 56 9 24 3 46 8 49 10 2 3 -5 25 -17 50 -17 33 -33 50 -65 66 -54 25
-165 33 -222 16z"/>
<path d="M934 1865 c-18 -7 -35 -18 -38 -24 -4 -6 -15 -15 -25 -21 -14 -7 -18
-6 -18 8 0 34 -4 37 -45 35 -24 -1 -51 -2 -60 -2 -17 -1 -18 -23 -18 -321 l0
-320 65 0 65 0 0 100 0 99 36 -24 c20 -14 44 -25 53 -26 9 0 23 -2 33 -4 43
-8 111 18 149 57 105 108 90 356 -25 428 -41 25 -130 33 -172 15z m93 -110
c44 -31 61 -160 29 -227 -37 -78 -145 -78 -182 0 -12 25 -15 54 -12 109 3 70
6 77 36 104 37 33 93 39 129 14z"/>
<path d="M1385 1871 c-51 -13 -95 -41 -115 -74 -31 -50 -27 -67 18 -68 20 0
47 -2 59 -5 15 -2 24 2 28 17 14 43 102 53 140 14 26 -25 34 -75 13 -76 -203
-8 -282 -47 -297 -144 -15 -102 45 -168 154 -166 60 0 101 14 133 43 l22 21 0
-26 c0 -28 2 -29 45 -29 14 0 38 0 53 1 l28 1 -1 178 c-2 227 -16 270 -100
302 -37 14 -139 20 -180 11z m155 -297 c0 -9 -7 -31 -16 -49 -36 -77 -183 -77
-169 0 2 11 4 24 4 28 2 17 68 36 124 37 46 0 57 -3 57 -16z"/>
<path d="M2612 1865 c-92 -28 -127 -75 -119 -159 7 -80 55 -112 203 -136 70
-12 94 -25 94 -54 0 -35 -25 -50 -86 -49 -55 0 -94 21 -94 50 0 15 2 14 -63
16 -67 3 -73 -3 -59 -50 25 -84 113 -125 250 -117 78 5 129 29 160 74 32 47
28 137 -8 175 -23 24 -85 49 -150 60 -19 3 -48 8 -65 11 -40 6 -68 39 -55 64
22 41 138 37 166 -5 17 -26 43 -31 102 -19 29 6 30 7 20 38 -15 43 -54 83 -96
97 -50 16 -151 18 -200 4z"/>
<path d="M1720 1862 c-16 -6 -13 -482 3 -483 21 -2 111 2 115 5 1 2 4 74 5
161 l2 157 28 24 c22 18 40 24 78 24 l49 0 0 61 0 62 -45 -5 c-27 -4 -59 -16
-80 -32 -34 -26 -40 -24 -36 12 1 6 -6 12 -16 13 -10 0 -35 1 -56 2 -20 1 -42
1 -47 -1z"/>
<path d="M2932 1437 c-14 -16 -5 -54 15 -61 21 -8 53 11 53 32 0 37 -46 56
-68 29z m45 -28 c1 -22 1 -22 -4 -1 -2 12 -9 22 -15 22 -5 0 -8 -7 -5 -15 4
-8 2 -17 -2 -19 -7 -4 -8 27 -2 42 5 13 26 -9 28 -29z"/>
</g>
</svg>
